<svg width="94" height="53" viewBox="0 0 94 53" fill="none" xmlns="http://www.w3.org/2000/svg">
<path d="M2.99139 40.5C1.33942 40.5 0 39.1606 0 37.5088V23.3539C0 17.1809 4.92243 12.2029 11.2065 12.0206C15.2476 11.9019 20.4689 14.6704 22.1523 20.0301C22.7732 22.0084 23.2187 23.8228 23.6494 25.5775C24.0049 27.0282 24.3411 28.398 24.7413 29.6994C24.9761 30.4628 26.3463 34.2716 30.2603 34.2716C33.1383 34.2716 35.5697 31.8643 35.5697 29.0148V15.0128C35.5697 13.361 36.9091 12.0216 38.5607 12.0216C40.2127 12.0216 41.5519 13.361 41.5519 15.0128V29.0148C41.5519 35.2121 36.4864 40.2538 30.2603 40.2538C23.9633 40.2538 20.2714 35.5156 19.0233 31.4583C18.5725 29.9916 18.2162 28.5398 17.8393 27.0029C17.4311 25.3395 17.0092 23.6189 16.4446 21.8221C15.6022 19.1387 12.9141 17.9484 11.3798 18.0008C8.30284 18.0898 5.98259 20.3912 5.98259 23.3539V37.5088C5.98259 39.1606 4.64317 40.5 2.99139 40.5Z" fill="#5000B4"/>
<path d="M56.1355 3.81356C56.1355 5.64358 54.6518 7.1272 52.8218 7.1272C50.9918 7.1272 49.5082 5.64358 49.5082 3.81356C49.5082 1.98334 50.9918 0.499913 52.8218 0.499913C54.6518 0.499913 56.1355 1.98334 56.1355 3.81356Z" fill="#5000B4"/>
<path d="M52.8219 39.8496C51.1699 39.8496 49.8307 38.5102 49.8307 36.8584V15.0119C49.8307 13.3599 51.1699 12.0207 52.8219 12.0207C54.4739 12.0207 55.8131 13.3599 55.8131 15.0119V36.8584C55.8131 38.5102 54.4739 39.8496 52.8219 39.8496Z" fill="#5000B4"/>
<path d="M78.6521 40.0063C70.7246 40.0063 64.2754 33.5571 64.2754 25.63V15.0223C64.2754 13.3703 65.6148 12.0311 67.2666 12.0311C68.9184 12.0311 70.2578 13.3703 70.2578 15.0223V25.63C70.2578 30.2585 74.0232 34.0239 78.6521 34.0239C83.2805 34.0239 87.0461 30.2585 87.0461 25.63V15.0223C87.0461 13.3703 88.3853 12.0311 90.0373 12.0311C91.6891 12.0311 93.0283 13.3703 93.0283 15.0223V25.63C93.0283 33.5571 86.5791 40.0063 78.6521 40.0063Z" fill="#5000B4"/>
</svg>
